<svg width="14" height="18" viewBox="0 0 14 18" fill="none" xmlns="http://www.w3.org/2000/svg">
<path d="M7.55859 0C8.84984 4.78014e-05 9.99597 0.826767 10.4043 2.05176L10.7207 3H13C13.5523 3 14 3.44772 14 4C14 4.55228 13.5523 5 13 5V17C13 17.5177 12.6067 17.9438 12.1025 17.9951L12 18H2L1.89746 17.9951C1.42703 17.9472 1.05278 17.573 1.00488 17.1025L1 17V5C0.447715 5 0 4.55228 0 4C0 3.44772 0.447715 3 1 3H3.2793L3.5957 2.05176C4.00403 0.826767 5.15016 4.78014e-05 6.44141 0H7.55859ZM3 16H11V5H3V16ZM6.44141 2C6.01111 2.00005 5.62934 2.27543 5.49316 2.68359L5.3877 3H8.6123L8.50684 2.68359C8.37066 2.27543 7.98889 2.00005 7.55859 2H6.44141Z" fill="#7E2A2A"/>
</svg>
