<svg width="20" height="19" viewBox="0 0 20 19" fill="none" xmlns="http://www.w3.org/2000/svg">
<mask id="mask0_279_3797" style="mask-type:alpha" maskUnits="userSpaceOnUse" x="0" y="0" width="20" height="19">
<rect width="20" height="19" fill="#D9D9D9"/>
</mask>
<g mask="url(#mask0_279_3797)">
<path d="M17.0901 2.53553C18.141 3.58644 18.2361 4.49148 18.1569 5.08291C18.1141 5.40308 18.0134 5.66953 17.9235 5.85493C17.8803 5.94415 17.8411 6.01152 17.8151 6.05311L16.8118 7.05646L12.6403 2.88494L11.2261 4.29916L15.3976 8.47067L8.11313 15.7551L2.25809 17.3675L3.87049 11.5125L13.5725 1.81047C13.6141 1.78448 13.6815 1.7453 13.7707 1.70206C13.9561 1.61221 14.2225 1.51154 14.5427 1.46866C15.1341 1.38946 16.0392 1.48463 17.0901 2.53553Z" stroke="#222222" stroke-width="2"/>
</g>
</svg>
