<svg width="22" height="24" viewBox="0 0 22 24" fill="none" xmlns="http://www.w3.org/2000/svg">
<path d="M13.6223 17.3333H20.3629V24M8.22983 6.66667H1.48925V0M20.9258 8.00454C20.1699 6.15421 18.9044 4.55072 17.273 3.3763C15.6416 2.20189 13.7101 1.50336 11.6975 1.36068C9.68494 1.21799 7.6718 1.63654 5.88774 2.56882C4.10369 3.5011 2.62008 4.91005 1.60511 6.63483M0.925781 15.9961C1.68165 17.8464 2.94719 19.4499 4.57856 20.6243C6.20993 21.7987 8.14339 22.4964 10.156 22.6391C12.1686 22.7817 14.1801 22.3633 15.9641 21.431C17.7482 20.4987 19.2308 19.09 20.2458 17.3652" stroke="#676262" stroke-width="2" stroke-linejoin="round"/>
</svg>
